<svg width="80" height="40" viewBox="0 0 80 40" fill="none" xmlns="http://www.w3.org/2000/svg">
<rect x="12.1426" y="12.5713" width="7.14286" height="17.1429" rx="3.57143" fill="url(#paint0_linear_16_3)"/>
<rect x="72.8574" y="15.4285" width="7.14286" height="11.4286" rx="3.57143" fill="url(#paint1_linear_16_3)"/>
<path d="M0 18.9999C0 17.0275 1.59898 15.4285 3.57143 15.4285C5.54387 15.4285 7.14286 17.0274 7.14286 18.9999V23.2856C7.14286 25.2581 5.54387 26.857 3.57143 26.857C1.59898 26.857 0 25.2581 0 23.2856V18.9999Z" fill="url(#paint2_linear_16_3)"/>
<rect x="48.5713" y="6.85718" width="7.14286" height="28.5714" rx="3.57143" fill="url(#paint3_linear_16_3)"/>
<rect x="36.4287" width="7.14286" height="40" rx="3.57143" fill="url(#paint4_linear_16_3)"/>
<rect x="24.2856" y="6.85718" width="7.14286" height="28.5714" rx="3.57143" fill="url(#paint5_linear_16_3)"/>
<rect x="60.7144" y="12.5713" width="7.14286" height="17.1429" rx="3.57143" fill="url(#paint6_linear_16_3)"/>
<defs>
<linearGradient id="paint0_linear_16_3" x1="15.714" y1="12.5713" x2="15.714" y2="29.7141" gradientUnits="userSpaceOnUse">
<stop stop-color="#E1BE86"/>
<stop offset="0.755" stop-color="#1E2F48"/>
</linearGradient>
<linearGradient id="paint1_linear_16_3" x1="76.4289" y1="15.4285" x2="76.4289" y2="26.857" gradientUnits="userSpaceOnUse">
<stop stop-color="#E1BE86"/>
<stop offset="0.755" stop-color="#1E2F48"/>
</linearGradient>
<linearGradient id="paint2_linear_16_3" x1="3.57143" y1="15.4285" x2="3.57143" y2="26.857" gradientUnits="userSpaceOnUse">
<stop stop-color="#E1BE86"/>
<stop offset="0.755" stop-color="#1E2F48"/>
</linearGradient>
<linearGradient id="paint3_linear_16_3" x1="52.1427" y1="6.85718" x2="52.1427" y2="35.4286" gradientUnits="userSpaceOnUse">
<stop stop-color="#E1BE86"/>
<stop offset="0.755" stop-color="#1E2F48"/>
</linearGradient>
<linearGradient id="paint4_linear_16_3" x1="40.0001" y1="0" x2="40.0001" y2="40" gradientUnits="userSpaceOnUse">
<stop stop-color="#E1BE86"/>
<stop offset="0.755" stop-color="#1E2F48"/>
</linearGradient>
<linearGradient id="paint5_linear_16_3" x1="27.8571" y1="6.85718" x2="27.8571" y2="35.4286" gradientUnits="userSpaceOnUse">
<stop stop-color="#E1BE86"/>
<stop offset="0.755" stop-color="#1E2F48"/>
</linearGradient>
<linearGradient id="paint6_linear_16_3" x1="64.2858" y1="12.5713" x2="64.2858" y2="29.7141" gradientUnits="userSpaceOnUse">
<stop stop-color="#E1BE86"/>
<stop offset="0.755" stop-color="#1E2F48"/>
</linearGradient>
</defs>
</svg>
