<svg width="278" height="39" viewBox="0 0 278 39" fill="none" xmlns="http://www.w3.org/2000/svg">
<g filter="url(#filter0_d_11_271)">
<path d="M23.1843 2.12V5.08H15.5843V30H11.9443V5.08H4.3043V2.12H23.1843ZM36.3449 30.36C34.2916 30.36 32.4249 29.8933 30.7449 28.96C29.0916 28.0267 27.7849 26.7067 26.8249 25C25.8916 23.2667 25.4249 21.2667 25.4249 19C25.4249 16.76 25.9049 14.7867 26.8649 13.08C27.8516 11.3467 29.1849 10.0267 30.8649 9.12C32.5449 8.18666 34.4249 7.72 36.5049 7.72C38.5849 7.72 40.4649 8.18666 42.1449 9.12C43.8249 10.0267 45.1449 11.3333 46.1049 13.04C47.0916 14.7467 47.5849 16.7333 47.5849 19C47.5849 21.2667 47.0783 23.2667 46.0649 25C45.0783 26.7067 43.7316 28.0267 42.0249 28.96C40.3183 29.8933 38.4249 30.36 36.3449 30.36ZM36.3449 27.16C37.6516 27.16 38.8783 26.8533 40.0249 26.24C41.1716 25.6267 42.0916 24.7067 42.7849 23.48C43.5049 22.2533 43.8649 20.76 43.8649 19C43.8649 17.24 43.5183 15.7467 42.8249 14.52C42.1316 13.2933 41.2249 12.3867 40.1049 11.8C38.9849 11.1867 37.7716 10.88 36.4649 10.88C35.1316 10.88 33.9049 11.1867 32.7849 11.8C31.6916 12.3867 30.8116 13.2933 30.1449 14.52C29.4783 15.7467 29.1449 17.24 29.1449 19C29.1449 20.7867 29.4649 22.2933 30.1049 23.52C30.7716 24.7467 31.6516 25.6667 32.7449 26.28C33.8383 26.8667 35.0383 27.16 36.3449 27.16ZM70.9309 8.08V30H67.2909V26.76C66.5975 27.88 65.6242 28.76 64.3709 29.4C63.1442 30.0133 61.7842 30.32 60.2909 30.32C58.5842 30.32 57.0509 29.9733 55.6909 29.28C54.3309 28.56 53.2509 27.4933 52.4509 26.08C51.6775 24.6667 51.2909 22.9467 51.2909 20.92V8.08H54.8909V20.44C54.8909 22.6 55.4375 24.2667 56.5309 25.44C57.6242 26.5867 59.1175 27.16 61.0109 27.16C62.9575 27.16 64.4909 26.56 65.6109 25.36C66.7309 24.16 67.2909 22.4133 67.2909 20.12V8.08H70.9309ZM74.8368 19C74.8368 16.7333 75.2901 14.76 76.1968 13.08C77.1035 11.3733 78.3568 10.0533 79.9568 9.12C81.5835 8.18666 83.4368 7.72 85.5168 7.72C88.2101 7.72 90.4235 8.37333 92.1568 9.68C93.9168 10.9867 95.0768 12.8 95.6368 15.12H91.7168C91.3435 13.7867 90.6101 12.7333 89.5168 11.96C88.4501 11.1867 87.1168 10.8 85.5168 10.8C83.4368 10.8 81.7568 11.52 80.4768 12.96C79.1968 14.3733 78.5568 16.3867 78.5568 19C78.5568 21.64 79.1968 23.68 80.4768 25.12C81.7568 26.56 83.4368 27.28 85.5168 27.28C87.1168 27.28 88.4501 26.9067 89.5168 26.16C90.5835 25.4133 91.3168 24.3467 91.7168 22.96H95.6368C95.0501 25.2 93.8768 27 92.1168 28.36C90.3568 29.6933 88.1568 30.36 85.5168 30.36C83.4368 30.36 81.5835 29.8933 79.9568 28.96C78.3568 28.0267 77.1035 26.7067 76.1968 25C75.2901 23.2933 74.8368 21.2933 74.8368 19ZM110.494 7.68C112.147 7.68 113.64 8.04 114.974 8.76C116.307 9.45333 117.347 10.5067 118.094 11.92C118.867 13.3333 119.254 15.0533 119.254 17.08V30H115.654V17.6C115.654 15.4133 115.107 13.7467 114.014 12.6C112.92 11.4267 111.427 10.84 109.534 10.84C107.614 10.84 106.08 11.44 104.934 12.64C103.814 13.84 103.254 15.5867 103.254 17.88V30H99.6137V0.399999H103.254V11.2C103.974 10.08 104.96 9.21333 106.214 8.6C107.494 7.98666 108.92 7.68 110.494 7.68ZM133.16 30.28C131.32 30.28 129.666 29.96 128.2 29.32C126.76 28.6533 125.626 27.7467 124.8 26.6C123.973 25.4267 123.546 24.08 123.52 22.56H127.4C127.533 23.8667 128.066 24.9733 129 25.88C129.96 26.76 131.346 27.2 133.16 27.2C134.893 27.2 136.253 26.7733 137.24 25.92C138.253 25.04 138.76 23.92 138.76 22.56C138.76 21.4933 138.466 20.6267 137.88 19.96C137.293 19.2933 136.56 18.7867 135.68 18.44C134.8 18.0933 133.613 17.72 132.12 17.32C130.28 16.84 128.8 16.36 127.68 15.88C126.586 15.4 125.64 14.6533 124.84 13.64C124.066 12.6 123.68 11.2133 123.68 9.48C123.68 7.96 124.066 6.61333 124.84 5.44C125.613 4.26666 126.693 3.36 128.08 2.72C129.493 2.08 131.106 1.76 132.92 1.76C135.533 1.76 137.666 2.41333 139.32 3.72C141 5.02666 141.946 6.76 142.16 8.92H138.16C138.026 7.85333 137.466 6.92 136.48 6.12C135.493 5.29333 134.186 4.88 132.56 4.88C131.04 4.88 129.8 5.28 128.84 6.08C127.88 6.85333 127.4 7.94666 127.4 9.36C127.4 10.3733 127.68 11.2 128.24 11.84C128.826 12.48 129.533 12.9733 130.36 13.32C131.213 13.64 132.4 14.0133 133.92 14.44C135.76 14.9467 137.24 15.4533 138.36 15.96C139.48 16.44 140.44 17.2 141.24 18.24C142.04 19.2533 142.44 20.64 142.44 22.4C142.44 23.76 142.08 25.04 141.36 26.24C140.64 27.44 139.573 28.4133 138.16 29.16C136.746 29.9067 135.08 30.28 133.16 30.28ZM151.356 11.08V24C151.356 25.0667 151.583 25.8267 152.036 26.28C152.49 26.7067 153.276 26.92 154.396 26.92H157.076V30H153.796C151.77 30 150.25 29.5333 149.236 28.6C148.223 27.6667 147.716 26.1333 147.716 24V11.08H144.876V8.08H147.716V2.56H151.356V8.08H157.076V11.08H151.356ZM170.166 30.36C168.113 30.36 166.246 29.8933 164.566 28.96C162.913 28.0267 161.606 26.7067 160.646 25C159.713 23.2667 159.246 21.2667 159.246 19C159.246 16.76 159.726 14.7867 160.686 13.08C161.673 11.3467 163.006 10.0267 164.686 9.12C166.366 8.18666 168.246 7.72 170.326 7.72C172.406 7.72 174.286 8.18666 175.966 9.12C177.646 10.0267 178.966 11.3333 179.926 13.04C180.913 14.7467 181.406 16.7333 181.406 19C181.406 21.2667 180.9 23.2667 179.886 25C178.9 26.7067 177.553 28.0267 175.846 28.96C174.14 29.8933 172.246 30.36 170.166 30.36ZM170.166 27.16C171.473 27.16 172.7 26.8533 173.846 26.24C174.993 25.6267 175.913 24.7067 176.606 23.48C177.326 22.2533 177.686 20.76 177.686 19C177.686 17.24 177.34 15.7467 176.646 14.52C175.953 13.2933 175.046 12.3867 173.926 11.8C172.806 11.1867 171.593 10.88 170.286 10.88C168.953 10.88 167.726 11.1867 166.606 11.8C165.513 12.3867 164.633 13.2933 163.966 14.52C163.3 15.7467 162.966 17.24 162.966 19C162.966 20.7867 163.286 22.2933 163.926 23.52C164.593 24.7467 165.473 25.6667 166.566 26.28C167.66 26.8667 168.86 27.16 170.166 27.16ZM195.992 7.68C198.659 7.68 200.819 8.49333 202.472 10.12C204.126 11.72 204.952 14.04 204.952 17.08V30H201.352V17.6C201.352 15.4133 200.806 13.7467 199.712 12.6C198.619 11.4267 197.126 10.84 195.232 10.84C193.312 10.84 191.779 11.44 190.632 12.64C189.512 13.84 188.952 15.5867 188.952 17.88V30H185.312V8.08H188.952V11.2C189.672 10.08 190.646 9.21333 191.872 8.6C193.126 7.98666 194.499 7.68 195.992 7.68ZM230.018 18.2C230.018 18.8933 229.978 19.6267 229.898 20.4H212.378C212.512 22.56 213.245 24.2533 214.578 25.48C215.938 26.68 217.578 27.28 219.498 27.28C221.072 27.28 222.378 26.92 223.418 26.2C224.485 25.4533 225.232 24.4667 225.658 23.24H229.578C228.992 25.3467 227.818 27.0667 226.058 28.4C224.298 29.7067 222.112 30.36 219.498 30.36C217.418 30.36 215.552 29.8933 213.898 28.96C212.272 28.0267 210.992 26.7067 210.058 25C209.125 23.2667 208.658 21.2667 208.658 19C208.658 16.7333 209.112 14.7467 210.018 13.04C210.925 11.3333 212.192 10.0267 213.818 9.12C215.472 8.18666 217.365 7.72 219.498 7.72C221.578 7.72 223.418 8.17333 225.018 9.08C226.618 9.98666 227.845 11.24 228.698 12.84C229.578 14.4133 230.018 16.2 230.018 18.2ZM226.258 17.44C226.258 16.0533 225.952 14.8667 225.338 13.88C224.725 12.8667 223.885 12.1067 222.818 11.6C221.778 11.0667 220.618 10.8 219.338 10.8C217.498 10.8 215.925 11.3867 214.618 12.56C213.338 13.7333 212.605 15.36 212.418 17.44H226.258ZM260.207 23.8H248.047L245.807 30H241.967L252.047 2.28H256.247L266.287 30H262.447L260.207 23.8ZM259.167 20.84L254.127 6.76L249.087 20.84H259.167ZM273.44 2.12V30H269.8V2.12H273.44Z" fill="#E1BE86"/>
</g>
<defs>
<filter id="filter0_d_11_271" x="0.304306" y="0.400002" width="277.136" height="37.96" filterUnits="userSpaceOnUse" color-interpolation-filters="sRGB">
<feFlood flood-opacity="0" result="BackgroundImageFix"/>
<feColorMatrix in="SourceAlpha" type="matrix" values="0 0 0 0 0 0 0 0 0 0 0 0 0 0 0 0 0 0 127 0" result="hardAlpha"/>
<feOffset dy="4"/>
<feGaussianBlur stdDeviation="2"/>
<feComposite in2="hardAlpha" operator="out"/>
<feColorMatrix type="matrix" values="0 0 0 0 0 0 0 0 0 0 0 0 0 0 0 0 0 0 0.25 0"/>
<feBlend mode="normal" in2="BackgroundImageFix" result="effect1_dropShadow_11_271"/>
<feBlend mode="normal" in="SourceGraphic" in2="effect1_dropShadow_11_271" result="shape"/>
</filter>
</defs>
</svg>
