<svg width="96" height="96" viewBox="0 0 96 96" fill="none" xmlns="http://www.w3.org/2000/svg">
<g filter="url(#filter0_di_11_272)">
<circle cx="47.5274" cy="43.5274" r="40.5" transform="rotate(0.0388286 47.5274 43.5274)" fill="#1E1E1E"/>
<circle cx="47.5274" cy="43.5274" r="42" transform="rotate(0.0388286 47.5274 43.5274)" stroke="url(#paint0_linear_11_272)" stroke-width="3" stroke-miterlimit="16" stroke-linejoin="round"/>
</g>
<mask id="path-3-outside-1_11_272" maskUnits="userSpaceOnUse" x="27.0163" y="28.0135" width="43.0217" height="32.0291" fill="black">
<rect fill="white" x="27.0163" y="28.0135" width="43.0217" height="32.0291"/>
<path d="M47.0393 30.1471L47.0373 33.1071L39.4373 33.1019L39.4204 58.0219L35.7804 58.0195L35.7973 33.0995L28.1573 33.0943L28.1593 30.1343L47.0393 30.1471ZM59.4609 58.3155C57.6209 58.3143 55.9677 57.9932 54.5015 57.3522C53.062 56.6845 51.9292 55.7771 51.1034 54.6299C50.2775 53.456 49.8517 52.109 49.8261 50.589L53.7061 50.5916C53.8385 51.8984 54.3711 53.0054 55.3038 53.9127C56.2632 54.7934 57.6496 55.2343 59.4629 55.2355C61.1963 55.2367 62.5566 54.811 63.5438 53.9583C64.5577 53.079 65.0652 51.9593 65.0661 50.5993C65.0668 49.5327 64.7741 48.6658 64.1879 47.9987C63.6016 47.3317 62.8686 46.8245 61.9889 46.4772C61.1091 46.13 59.9227 45.7558 58.4296 45.3548C56.59 44.8736 55.1103 44.3926 53.9906 43.9118C52.8976 43.4311 51.9514 42.6838 51.1521 41.6699C50.3795 40.6294 49.9938 39.2424 49.995 37.5091C49.996 35.9891 50.3836 34.6427 51.1577 33.4699C51.9318 32.2971 53.0124 31.3911 54.3995 30.7521C55.8133 30.113 57.4269 29.7941 59.2402 29.7954C61.8535 29.7971 63.9864 30.4519 65.6389 31.7597C67.318 33.0675 68.2635 34.8015 68.4753 36.9616L64.4753 36.9589C64.3427 35.8922 63.7834 34.9584 62.7972 34.1578C61.8111 33.3304 60.5047 32.9162 58.8781 32.9151C57.3581 32.9141 56.1178 33.3133 55.1573 34.1126C54.1967 34.8853 53.716 35.9783 53.715 37.3916C53.7143 38.405 53.9938 39.2318 54.5534 39.8722C55.1396 40.5126 55.8459 41.0064 56.6724 41.3536C57.5255 41.6742 58.7119 42.0483 60.2316 42.476C62.0712 42.984 63.5509 43.4916 64.6706 43.9991C65.7902 44.4798 66.7497 45.2405 67.549 46.281C68.3483 47.2949 68.7474 48.6818 68.7462 50.4418C68.7453 51.8018 68.3844 53.0816 67.6636 54.2811C66.9428 55.4806 65.8755 56.4532 64.4616 57.1989C63.0478 57.9446 61.3809 58.3168 59.4609 58.3155Z"/>
</mask>
<path d="M47.0393 30.1471L47.0373 33.1071L39.4373 33.1019L39.4204 58.0219L35.7804 58.0195L35.7973 33.0995L28.1573 33.0943L28.1593 30.1343L47.0393 30.1471ZM59.4609 58.3155C57.6209 58.3143 55.9677 57.9932 54.5015 57.3522C53.062 56.6845 51.9292 55.7771 51.1034 54.6299C50.2775 53.456 49.8517 52.109 49.8261 50.589L53.7061 50.5916C53.8385 51.8984 54.3711 53.0054 55.3038 53.9127C56.2632 54.7934 57.6496 55.2343 59.4629 55.2355C61.1963 55.2367 62.5566 54.811 63.5438 53.9583C64.5577 53.079 65.0652 51.9593 65.0661 50.5993C65.0668 49.5327 64.7741 48.6658 64.1879 47.9987C63.6016 47.3317 62.8686 46.8245 61.9889 46.4772C61.1091 46.13 59.9227 45.7558 58.4296 45.3548C56.59 44.8736 55.1103 44.3926 53.9906 43.9118C52.8976 43.4311 51.9514 42.6838 51.1521 41.6699C50.3795 40.6294 49.9938 39.2424 49.995 37.5091C49.996 35.9891 50.3836 34.6427 51.1577 33.4699C51.9318 32.2971 53.0124 31.3911 54.3995 30.7521C55.8133 30.113 57.4269 29.7941 59.2402 29.7954C61.8535 29.7971 63.9864 30.4519 65.6389 31.7597C67.318 33.0675 68.2635 34.8015 68.4753 36.9616L64.4753 36.9589C64.3427 35.8922 63.7834 34.9584 62.7972 34.1578C61.8111 33.3304 60.5047 32.9162 58.8781 32.9151C57.3581 32.9141 56.1178 33.3133 55.1573 34.1126C54.1967 34.8853 53.716 35.9783 53.715 37.3916C53.7143 38.405 53.9938 39.2318 54.5534 39.8722C55.1396 40.5126 55.8459 41.0064 56.6724 41.3536C57.5255 41.6742 58.7119 42.0483 60.2316 42.476C62.0712 42.984 63.5509 43.4916 64.6706 43.9991C65.7902 44.4798 66.7497 45.2405 67.549 46.281C68.3483 47.2949 68.7474 48.6818 68.7462 50.4418C68.7453 51.8018 68.3844 53.0816 67.6636 54.2811C66.9428 55.4806 65.8755 56.4532 64.4616 57.1989C63.0478 57.9446 61.3809 58.3168 59.4609 58.3155Z" fill="#1E1E1E"/>
<path d="M47.0393 30.1471L48.0393 30.1478L48.04 29.1478L47.04 29.1471L47.0393 30.1471ZM47.0373 33.1071L47.0366 34.1071L48.0366 34.1078L48.0373 33.1078L47.0373 33.1071ZM39.4373 33.1019L39.438 32.1019L38.438 32.1013L38.4373 33.1013L39.4373 33.1019ZM39.4204 58.0219L39.4197 59.0219L40.4197 59.0226L40.4204 58.0226L39.4204 58.0219ZM35.7804 58.0195L34.7804 58.0188L34.7797 59.0188L35.7797 59.0195L35.7804 58.0195ZM35.7973 33.0995L36.7973 33.1002L36.798 32.1002L35.798 32.0995L35.7973 33.0995ZM28.1573 33.0943L27.1573 33.0936L27.1566 34.0936L28.1566 34.0943L28.1573 33.0943ZM28.1593 30.1343L28.16 29.1343L27.16 29.1336L27.1593 30.1336L28.1593 30.1343ZM46.0393 30.1464L46.0373 33.1064L48.0373 33.1078L48.0393 30.1478L46.0393 30.1464ZM47.038 32.1071L39.438 32.1019L39.4366 34.1019L47.0366 34.1071L47.038 32.1071ZM38.4373 33.1013L38.4204 58.0213L40.4204 58.0226L40.4373 33.1026L38.4373 33.1013ZM39.4211 57.0219L35.7811 57.0195L35.7797 59.0195L39.4197 59.0219L39.4211 57.0219ZM36.7804 58.0202L36.7973 33.1002L34.7973 33.0988L34.7804 58.0188L36.7804 58.0202ZM35.798 32.0995L28.158 32.0943L28.1566 34.0943L35.7966 34.0995L35.798 32.0995ZM29.1573 33.095L29.1593 30.135L27.1593 30.1336L27.1573 33.0936L29.1573 33.095ZM28.1586 31.1343L47.0386 31.1471L47.04 29.1471L28.16 29.1343L28.1586 31.1343ZM54.5015 57.3522L54.0808 58.2593L54.0908 58.264L54.1009 58.2684L54.5015 57.3522ZM51.1034 54.6299L50.2854 55.2053L50.2918 55.2141L51.1034 54.6299ZM49.8261 50.589L49.8268 49.589L48.8091 49.5883L48.8262 50.6059L49.8261 50.589ZM53.7061 50.5916L54.701 50.4908L54.6099 49.5922L53.7068 49.5916L53.7061 50.5916ZM55.3038 53.9127L54.6066 54.6295L54.617 54.6396L54.6276 54.6494L55.3038 53.9127ZM63.5438 53.9583L64.1975 54.7151L64.199 54.7138L63.5438 53.9583ZM64.1879 47.9987L63.4367 48.6588L64.1879 47.9987ZM61.9889 46.4772L61.6217 47.4074L61.9889 46.4772ZM58.4296 45.3548L58.689 44.389L58.6827 44.3874L58.4296 45.3548ZM53.9906 43.9118L53.588 44.8272L53.5961 44.8307L53.9906 43.9118ZM51.1521 41.6699L50.3493 42.266L50.3579 42.2777L50.3668 42.289L51.1521 41.6699ZM51.1577 33.4699L51.9923 34.0208L51.1577 33.4699ZM54.3995 30.7521L53.9876 29.8408L53.9811 29.8438L54.3995 30.7521ZM65.6389 31.7597L65.0183 32.5439L65.0244 32.5486L65.6389 31.7597ZM68.4753 36.9616L68.4747 37.9616L69.5783 37.9624L69.4706 36.864L68.4753 36.9616ZM64.4753 36.9589L63.483 37.0823L63.5919 37.9583L64.4747 37.9589L64.4753 36.9589ZM62.7972 34.1578L62.1545 34.9239L62.1607 34.929L62.1669 34.9341L62.7972 34.1578ZM55.1573 34.1126L55.7841 34.8918L55.7905 34.8866L55.7969 34.8813L55.1573 34.1126ZM54.5534 39.8722L53.8003 40.5302L53.8079 40.5389L53.8157 40.5474L54.5534 39.8722ZM56.6724 41.3536L56.285 42.2756L56.3027 42.283L56.3206 42.2897L56.6724 41.3536ZM60.2316 42.476L59.9607 43.4387L59.9655 43.44L60.2316 42.476ZM64.6706 43.9991L64.2578 44.9099L64.2669 44.914L64.276 44.9179L64.6706 43.9991ZM67.549 46.281L66.7559 46.8902L66.7637 46.9001L67.549 46.281ZM67.6636 54.2811L68.5207 54.7962L67.6636 54.2811ZM64.4616 57.1989L63.9951 56.3144L64.4616 57.1989ZM59.4615 57.3155C57.7387 57.3144 56.2247 57.0141 54.9021 56.4359L54.1009 58.2684C55.7108 58.9722 57.503 59.3142 59.4602 59.3155L59.4615 57.3155ZM54.9222 56.445C53.6191 55.8406 52.6286 55.037 51.9149 54.0456L50.2918 55.2141C51.2299 56.5172 52.5048 57.5284 54.0808 58.2593L54.9222 56.445ZM51.9212 54.0545C51.2175 53.0543 50.8484 51.9044 50.826 50.5721L48.8262 50.6059C48.855 52.3136 49.3374 53.8577 50.2855 55.2053L51.9212 54.0545ZM49.8254 51.589L53.7054 51.5916L53.7068 49.5916L49.8268 49.589L49.8254 51.589ZM52.7112 50.6925C52.8671 52.2307 53.5036 53.5566 54.6066 54.6295L56.0011 53.1959C55.2387 52.4542 54.81 51.566 54.701 50.4908L52.7112 50.6925ZM54.6276 54.6494C55.8329 55.7558 57.4973 56.2342 59.4623 56.2355L59.4636 54.2355C57.8019 54.2344 56.6935 53.8309 55.9801 53.176L54.6276 54.6494ZM59.4623 56.2355C61.3559 56.2368 62.9758 55.7702 64.1975 54.7151L62.8902 53.2015C62.1373 53.8517 61.0367 54.2366 59.4636 54.2355L59.4623 56.2355ZM64.199 54.7138C65.4351 53.6418 66.065 52.2452 66.0661 50.6L64.0661 50.5986C64.0654 51.6734 63.6804 52.5162 62.8886 53.2028L64.199 54.7138ZM66.0661 50.6C66.0669 49.3415 65.7167 48.2236 64.939 47.3386L63.4367 48.6588C63.8314 49.108 64.0667 49.7238 64.0661 50.5986L66.0661 50.6ZM64.939 47.3386C64.2413 46.5446 63.3736 45.9487 62.356 45.5471L61.6217 47.4074C62.3637 47.7003 62.962 48.1187 63.4367 48.6588L64.939 47.3386ZM62.356 45.5471C61.4261 45.18 60.1989 44.7946 58.689 44.3891L58.1702 46.3206C59.6465 46.7171 60.7921 47.0799 61.6217 47.4074L62.356 45.5471ZM58.6827 44.3874C56.8678 43.9126 55.441 43.4463 54.3852 42.9929L53.5961 44.8307C54.7796 45.3389 56.3121 45.8345 58.1766 46.3223L58.6827 44.3874ZM54.3932 42.9964C53.4621 42.5869 52.6438 41.9468 51.9374 41.0508L50.3668 42.289C51.2591 43.4208 52.3331 44.2752 53.588 44.8272L54.3932 42.9964ZM51.955 41.0737C51.3476 40.2557 50.9939 39.1 50.995 37.5098L48.995 37.5084C48.9937 39.3848 49.4114 41.003 50.3493 42.266L51.955 41.0737ZM50.995 37.5098C50.9959 36.1687 51.3348 35.0169 51.9923 34.0208L50.3231 32.919C49.4324 34.2685 48.9961 35.8095 48.995 37.5084L50.995 37.5098ZM51.9923 34.0208C52.6548 33.017 53.5849 32.2284 54.818 31.6603L53.9811 29.8438C52.4399 30.5539 51.2088 31.5772 50.3231 32.919L51.9923 34.0208ZM54.8114 31.6633C56.0755 31.0919 57.5446 30.7942 59.2395 30.7954L59.2409 28.7954C57.3091 28.7941 55.5511 29.1341 53.9876 29.8409L54.8114 31.6633ZM59.2395 30.7954C61.6832 30.797 63.5813 31.4066 65.0183 32.5438L66.2594 30.9756C64.3915 29.4973 62.0239 28.7973 59.2409 28.7954L59.2395 30.7954ZM65.0244 32.5486C66.4824 33.6842 67.2944 35.1659 67.4801 37.0592L69.4706 36.864C69.2325 34.4371 68.1536 32.4508 66.2533 30.9708L65.0244 32.5486ZM68.476 35.9616L64.476 35.9589L64.4747 37.9589L68.4747 37.9616L68.476 35.9616ZM65.4677 36.8356C65.2975 35.4668 64.5752 34.3133 63.4276 33.3815L62.1669 34.9341C62.9915 35.6036 63.3879 36.3175 63.483 37.0823L65.4677 36.8356ZM63.44 33.3917C62.2306 32.3771 60.6767 31.9163 58.8788 31.9151L58.8774 33.9151C60.3327 33.9161 61.3916 34.2838 62.1545 34.9239L63.44 33.3917ZM58.8788 31.9151C57.1773 31.914 55.6946 32.3645 54.5176 33.3439L55.7969 34.8813C56.541 34.262 57.5388 33.9142 58.8774 33.9151L58.8788 31.9151ZM54.5305 33.3334C53.2978 34.325 52.7162 35.7249 52.715 37.3909L54.715 37.3923C54.7158 36.2317 55.0956 35.4456 55.7841 34.8918L54.5305 33.3334ZM52.715 37.3909C52.7142 38.5977 53.052 39.6737 53.8003 40.5302L55.3064 39.2142C54.9356 38.7899 54.7145 38.2122 54.715 37.3923L52.715 37.3909ZM53.8157 40.5474C54.5027 41.2979 55.3298 41.8742 56.285 42.2756L57.0597 40.4317C56.362 40.1386 55.7764 39.7273 55.291 39.197L53.8157 40.5474ZM56.3206 42.2897C57.2126 42.6249 58.4303 43.0079 59.9607 43.4386L60.5025 41.5134C58.9935 41.0887 57.8383 40.7235 57.0241 40.4175L56.3206 42.2897ZM59.9655 43.44C61.7791 43.9407 63.2039 44.4323 64.2578 44.9099L65.0833 43.0882C63.8979 42.551 62.3634 42.0272 60.4977 41.5121L59.9655 43.44ZM64.276 44.9179C65.2266 45.3261 66.0526 45.9745 66.756 46.8902L68.3421 45.6718C67.4468 44.5064 66.3539 43.6335 65.0651 43.0802L64.276 44.9179ZM66.7637 46.9001C67.3808 47.6829 67.7473 48.825 67.7462 50.4411L69.7462 50.4425C69.7475 48.5386 69.3158 46.9069 68.3343 45.6619L66.7637 46.9001ZM67.7462 50.4411C67.7454 51.6145 67.4367 52.7171 66.8064 53.766L68.5207 54.7962C69.3321 53.446 69.7451 51.9892 69.7462 50.4425L67.7462 50.4411ZM66.8064 53.766C66.1924 54.7878 65.2709 55.6415 63.9951 56.3144L64.9281 58.0834C66.48 57.2649 67.6931 56.1734 68.5207 54.7962L66.8064 53.766ZM63.9951 56.3144C62.7515 56.9703 61.2513 57.3167 59.4615 57.3155L59.4602 59.3155C61.5105 59.3169 63.344 58.9189 64.9281 58.0834L63.9951 56.3144Z" fill="url(#paint1_linear_11_272)" mask="url(#path-3-outside-1_11_272)"/>
<defs>
<filter id="filter0_di_11_272" x="0.0274391" y="0.0274353" width="95" height="95" filterUnits="userSpaceOnUse" color-interpolation-filters="sRGB">
<feFlood flood-opacity="0" result="BackgroundImageFix"/>
<feColorMatrix in="SourceAlpha" type="matrix" values="0 0 0 0 0 0 0 0 0 0 0 0 0 0 0 0 0 0 127 0" result="hardAlpha"/>
<feOffset dy="4"/>
<feGaussianBlur stdDeviation="2"/>
<feComposite in2="hardAlpha" operator="out"/>
<feColorMatrix type="matrix" values="0 0 0 0 0 0 0 0 0 0 0 0 0 0 0 0 0 0 0.25 0"/>
<feBlend mode="normal" in2="BackgroundImageFix" result="effect1_dropShadow_11_272"/>
<feBlend mode="normal" in="SourceGraphic" in2="effect1_dropShadow_11_272" result="shape"/>
<feColorMatrix in="SourceAlpha" type="matrix" values="0 0 0 0 0 0 0 0 0 0 0 0 0 0 0 0 0 0 127 0" result="hardAlpha"/>
<feOffset dy="4"/>
<feGaussianBlur stdDeviation="2"/>
<feComposite in2="hardAlpha" operator="arithmetic" k2="-1" k3="1"/>
<feColorMatrix type="matrix" values="0 0 0 0 0 0 0 0 0 0 0 0 0 0 0 0 0 0 0.25 0"/>
<feBlend mode="normal" in2="shape" result="effect2_innerShadow_11_272"/>
</filter>
<linearGradient id="paint0_linear_11_272" x1="47.5274" y1="3.02744" x2="47.5274" y2="84.0274" gradientUnits="userSpaceOnUse">
<stop stop-color="#4A5C79"/>
<stop offset="1" stop-color="#DFBD69"/>
<stop offset="1" stop-color="#E1BE86"/>
</linearGradient>
<linearGradient id="paint1_linear_11_272" x1="44.0295" y1="40.5251" x2="44.5088" y2="71.0254" gradientUnits="userSpaceOnUse">
<stop stop-color="#4A5C79"/>
<stop offset="1" stop-color="#E1BE86"/>
</linearGradient>
</defs>
</svg>
